<svg width="150" height="142" viewBox="0 0 150 142" fill="none" xmlns="http://www.w3.org/2000/svg">
<g clip-path="url(#clip0_4575_48)">
<path d="M5.02003 118.189C5.03217 118.241 5.04888 118.291 5.07 118.339C5.07544 118.371 5.08555 118.401 5.09999 118.429L12.3778 131.047L12.4078 131.077C12.428 131.109 12.4514 131.139 12.4778 131.167C12.5178 131.207 12.5578 131.237 12.5978 131.277C12.6278 131.297 12.6378 131.327 12.6678 131.337C12.6795 131.345 12.6936 131.348 12.7077 131.347C12.8163 131.402 12.9358 131.433 13.0576 131.437H136.891C137.013 131.433 137.132 131.402 137.241 131.347C137.271 131.327 137.291 131.307 137.321 131.287C137.402 131.236 137.47 131.168 137.521 131.087C137.531 131.067 137.551 131.057 137.571 131.037L144.859 118.419C144.869 118.409 144.869 118.389 144.879 118.379C144.898 118.349 144.912 118.315 144.919 118.279C144.929 118.249 144.939 118.209 144.949 118.179C144.957 118.147 144.96 118.113 144.959 118.079C144.959 118.059 144.969 118.049 144.969 118.029C144.969 118.009 144.959 117.999 144.959 117.979C144.959 117.959 144.949 117.909 144.949 117.879C144.949 117.849 144.929 117.809 144.919 117.779C144.908 117.745 144.895 117.712 144.879 117.679C144.869 117.669 144.869 117.649 144.859 117.639L82.947 10.3908C82.9296 10.3654 82.9095 10.3419 82.8871 10.3208C82.8558 10.2762 82.8188 10.2359 82.7771 10.2008C82.6987 10.1431 82.615 10.0929 82.5272 10.0508C82.4751 10.0351 82.4215 10.0251 82.3672 10.0209C82.3372 10.0209 82.3072 10.0009 82.2673 10.0009H67.7015C67.6815 10.0009 67.6716 10.0109 67.6516 10.0109C67.6316 10.0109 67.5816 10.0209 67.5516 10.0209L67.4416 10.0508C67.4073 10.0615 67.3739 10.0749 67.3417 10.0908C67.3299 10.0988 67.3158 10.1023 67.3017 10.1008C67.2903 10.1132 67.2767 10.1233 67.2617 10.1308C67.2333 10.1484 67.2065 10.1684 67.1817 10.1908C67.1526 10.2149 67.1258 10.2417 67.1017 10.2708C67.0817 10.3008 67.0617 10.3208 67.0417 10.3508C67.0294 10.3622 67.0192 10.3757 67.0117 10.3908L5.08998 117.649C5.07554 117.678 5.06544 117.708 5.05999 117.739C5.03886 117.788 5.02214 117.838 5.01002 117.889C5.00172 117.939 4.99836 117.989 5.00001 118.039C5.01001 118.089 5.01003 118.139 5.02003 118.189ZM81.8174 11.5705L142.829 117.25H36.2808L42.6589 106.212H122.345C122.469 106.211 122.59 106.176 122.695 106.112C122.705 106.102 122.725 106.112 122.735 106.102C122.761 106.084 122.784 106.064 122.805 106.042C122.848 106.008 122.888 105.971 122.925 105.932C122.955 105.894 122.982 105.854 123.005 105.812C123.035 105.774 123.056 105.729 123.065 105.682C123.086 105.631 123.096 105.577 123.095 105.522C123.095 105.492 123.115 105.462 123.115 105.422C123.115 105.402 123.105 105.392 123.105 105.372C123.1 105.321 123.09 105.271 123.075 105.222C123.063 105.171 123.046 105.12 123.025 105.072C123.015 105.062 123.015 105.042 123.005 105.032L69.0511 11.5705H81.8174ZM136.451 129.867H14.4272L67.7015 37.5854L74.0797 48.6232L34.2314 117.639C34.2234 117.651 34.2199 117.665 34.2214 117.679C34.2003 117.728 34.1835 117.778 34.1714 117.829C34.1566 117.878 34.1466 117.929 34.1414 117.979C34.1414 117.999 34.1314 118.009 34.1314 118.029C34.1314 118.049 34.1514 118.089 34.1514 118.129C34.1566 118.183 34.1666 118.237 34.1814 118.289C34.2014 118.339 34.2214 118.379 34.2414 118.419C34.2657 118.461 34.2924 118.501 34.3214 118.539C34.3614 118.579 34.4014 118.609 34.4414 118.649C34.4713 118.669 34.4813 118.699 34.5113 118.709C34.5213 118.719 34.5413 118.709 34.5513 118.719C34.6592 118.778 34.7786 118.812 34.9012 118.819H142.809L136.451 129.867ZM106.41 104.642H43.5587L74.9894 50.2028L106.41 104.642ZM67.7015 12.3604L120.976 104.642H108.23L68.3913 35.6258C68.379 35.6144 68.3688 35.6008 68.3614 35.5858C68.3314 35.5458 68.2914 35.5058 68.2614 35.4658C68.2261 35.4272 68.1857 35.3936 68.1414 35.3658C68.13 35.3535 68.1165 35.3433 68.1014 35.3358C68.0731 35.3214 68.0428 35.3113 68.0114 35.3058C67.9631 35.2847 67.9129 35.268 67.8615 35.2558C67.762 35.2425 67.6611 35.2425 67.5616 35.2558C67.5102 35.268 67.46 35.2847 67.4116 35.3058C67.3803 35.3113 67.35 35.3214 67.3216 35.3358C67.3103 35.3482 67.2967 35.3583 67.2817 35.3658C67.2417 35.3958 67.2017 35.4358 67.1617 35.4658C67.1204 35.4984 67.0864 35.5392 67.0617 35.5858C67.0494 35.5972 67.0392 35.6107 67.0318 35.6258L13.0777 129.087L6.69953 118.049L67.7015 12.3604Z" fill="white"/>
</g>
<defs>
<clipPath id="clip0_4575_48">
<rect width="139.969" height="121.438" fill="white" transform="translate(5 10)"/>
</clipPath>
</defs>
</svg>
