<svg width="150" height="142" viewBox="0 0 150 142" fill="none" xmlns="http://www.w3.org/2000/svg">
<g clip-path="url(#clip0_4575_49)">
<path d="M135.219 35.9949L114.522 24.0468L95.3158 35.1351V12.9486L74.6094 1.00049L53.913 12.9486V35.1251L34.7064 24.0368L14 35.9949V59.9012L33.2067 70.9894L14 82.0776V105.984L34.6964 117.932L53.903 106.844V129.02L74.5994 140.968L95.2957 129.02V106.844L114.502 117.932L135.219 105.984V82.0776L116.012 70.9894L135.219 59.9012V35.9949ZM114.522 25.7666L132.989 36.4249L95.4357 58.1714L95.3158 36.8548L114.522 25.7666ZM93.826 37.7147L93.946 59.0413L75.3593 69.8096V25.3366L93.826 14.6783V37.7147ZM55.4028 14.6783L73.8596 25.3366V69.8096L55.4028 59.1213V14.6783ZM34.6964 25.7666L53.903 36.8548V58.2414L16.2397 36.4249L34.6964 25.7666ZM15.4898 59.0413V37.7247L53.1632 59.5412L34.7064 70.1295L15.4898 59.0413ZM15.4898 105.124V83.8074L33.9465 94.4657V115.782L15.4898 105.124ZM16.2397 82.5076L35.0763 71.6393L54.6629 60.4011L73.1196 71.0894L34.7064 93.1659L16.2397 82.5076ZM73.8596 138.819L55.4028 128.16V105.984L73.8596 95.3255V138.819ZM55.4028 104.264L54.283 104.914L35.4463 115.792V94.4757L73.8596 72.3992V93.6058L55.4028 104.264ZM74.6094 24.0468L56.1526 13.3885L74.6094 2.73021L93.0662 13.3885L74.6094 24.0468ZM93.816 128.16L75.3593 138.819V95.3255L93.816 105.984V128.16ZM113.773 115.782L94.9358 104.904L93.816 104.254L75.3593 93.5958V72.3892L113.773 94.4657V115.782ZM133.729 105.124L115.272 115.782V94.2857L133.729 83.7974V105.124ZM132.969 82.5076L114.362 93.0859L76.0992 71.0994L94.6859 60.3311L113.033 70.9894L113.653 71.3493L114.023 71.5693L114.142 71.6393L132.969 82.5076ZM133.729 59.0413L114.522 70.1295L96.1856 59.4712L133.739 37.7247V59.0413H133.729Z" fill="white"/>
</g>
<defs>
<clipPath id="clip0_4575_49">
<rect width="121.219" height="139.969" fill="white" transform="translate(14 1)"/>
</clipPath>
</defs>
</svg>
