<svg width="150" height="142" viewBox="0 0 150 142" fill="none" xmlns="http://www.w3.org/2000/svg">
<g clip-path="url(#clip0_4575_50)">
<path d="M119.515 8.00647L93.3405 23.0031L93.3904 62.0445L56.9585 22.4933L30.2544 8.01647L5 22.2933V103.485L30.5244 117.732L56.7185 103.235V96.5768L92.2907 133.869L144.969 103.455V22.2933L119.515 8.00647ZM95.7899 25.8025L120.454 39.9494V91.418L95.8299 64.6939L95.7899 25.8025ZM7.44947 25.1027L29.8045 38.0098L91.4209 104.215L91.4409 129.41L29.3846 64.344V114.283L7.44947 102.056V25.1027ZM54.2691 94.2274V101.806L31.7141 114.283V70.4027L54.409 94.2274H54.2691ZM142.639 102.066L93.8703 130.209L93.8504 103.265L31.3342 36.1002L8.67918 23.0231L30.2944 10.7959L55.4688 24.4428L122.904 97.6366V38.5397L97.0196 23.703L119.585 10.7859L142.639 23.703V102.066Z" fill="white"/>
</g>
<defs>
<clipPath id="clip0_4575_50">
<rect width="139.969" height="125.875" fill="white" transform="translate(5 8)"/>
</clipPath>
</defs>
</svg>
