<svg width="150" height="142" viewBox="0 0 150 142" fill="none" xmlns="http://www.w3.org/2000/svg">
<g clip-path="url(#clip0_4575_51)">
<path fill-rule="evenodd" clip-rule="evenodd" d="M143.733 49.8211C139.137 35.3036 129.935 22.6795 117.521 13.8611C105.107 5.04265 90.1566 0.510423 74.9354 0.950961C59.7142 1.3915 45.0512 6.78079 33.1677 16.3024C21.2842 25.8241 12.8278 38.9593 9.07932 53.7183C5.33081 68.4773 6.49453 84.0558 12.3942 98.0941C18.2939 112.132 28.6081 123.865 41.7743 131.516C54.9406 139.166 70.2415 142.317 85.3592 140.491C100.477 138.666 114.588 131.962 125.554 121.397H125.584L126.154 120.828C128.904 118.065 130.447 114.323 130.442 110.425C130.438 106.526 128.887 102.789 126.131 100.032C123.374 97.2751 119.636 95.7244 115.738 95.7201C111.839 95.7157 108.098 97.258 105.335 100.009V99.9985C99.6997 105.514 92.5787 109.267 84.8437 110.798C77.1087 112.329 69.0951 111.572 61.7837 108.619C54.4723 105.667 48.1801 100.647 43.6774 94.1734C39.1748 87.7004 36.6567 80.055 36.4317 72.1731C36.2067 64.2912 38.2843 56.5147 42.4103 49.7952C46.5363 43.0758 52.5318 37.7049 59.6628 34.3399C66.7939 30.9749 74.7512 29.7618 82.561 30.8491C90.3708 31.9363 97.6943 35.2768 103.635 40.4615L105.605 42.4414C106.526 43.3744 107.04 44.6337 107.035 45.9444C107.031 47.2551 106.508 48.5109 105.582 49.4378C104.655 50.3646 103.399 50.8872 102.088 50.8916C100.778 50.896 99.5183 50.3817 98.5853 49.4611L95.8555 46.7212L95.7555 46.8212C95.7121 46.6993 95.64 46.5896 95.5454 46.5012C90.9103 42.9912 85.3748 40.8676 79.5814 40.3769C73.7879 39.8863 67.9742 41.0487 62.8148 43.7293C57.6554 46.4099 53.3619 50.4987 50.4328 55.5211C47.5037 60.5436 46.059 66.2937 46.2664 72.1042C46.4738 77.9147 48.3248 83.5473 51.6045 88.3481C54.8842 93.149 59.4581 96.9213 64.7955 99.2272C70.1329 101.533 76.0148 102.278 81.7585 101.376C87.5023 100.473 92.8723 97.9604 97.2454 94.1288C98.0687 93.209 98.5206 92.0158 98.5132 90.7813C98.5058 89.5468 98.0397 88.3591 97.2054 87.4492C95.2355 85.3193 91.8656 85.8793 90.1957 87.2492C87.151 89.7254 83.4713 91.2951 79.5767 91.7792C75.6822 92.2632 71.7301 91.6419 68.1719 89.9863C64.6138 88.3307 61.593 85.7076 59.455 82.4167C57.3169 79.1258 56.1476 75.2998 56.0809 71.3759C56.0141 67.452 57.0524 63.5885 59.0773 60.2267C61.1021 56.8649 64.0318 54.1405 67.5316 52.3648C71.0313 50.5891 74.96 49.8337 78.8688 50.1849C82.7775 50.5361 86.5086 51.9797 89.6358 54.3508L89.6657 54.3308L91.4356 56.1008C94.1985 58.8513 97.9397 60.3936 101.838 60.3893C105.737 60.3849 109.475 58.8342 112.231 56.0775C114.988 53.3208 116.539 49.5831 116.543 45.6845C116.548 41.7858 115.005 38.0447 112.255 35.2818L112.035 35.0618C112.001 34.9045 111.925 34.7593 111.815 34.6418C104.652 27.7874 95.6251 23.1994 85.866 21.4527C76.1068 19.7061 66.0492 20.8784 56.9535 24.823C47.8578 28.7675 40.1284 35.3086 34.734 43.6269C29.3397 51.9451 26.5203 61.6703 26.6291 71.5839C26.7379 81.4975 29.7699 91.1585 35.3455 99.3564C40.921 107.554 48.792 113.924 57.9721 117.668C67.1522 121.412 77.233 122.364 86.9515 120.403C96.67 118.443 105.594 113.658 112.605 106.648C112.619 106.614 112.636 106.581 112.655 106.548C113.557 105.704 114.743 105.228 115.979 105.214C117.215 105.201 118.411 105.65 119.333 106.473C120.254 107.297 120.834 108.436 120.958 109.665C121.082 110.895 120.742 112.127 120.004 113.118C110.873 122.445 98.9559 128.549 86.0512 130.509C73.1464 132.469 59.9543 130.179 48.4653 123.985C36.9762 117.79 27.8137 108.026 22.3601 96.1673C16.9066 84.3084 15.458 70.9976 18.2329 58.2432C21.0078 45.4888 27.8556 33.983 37.7432 25.4618C47.6307 16.9406 60.0214 11.8663 73.0457 11.0047C86.07 10.1431 99.0211 13.5409 109.945 20.6854C120.869 27.8298 129.173 38.3334 133.604 50.611C134.334 52.6409 136.043 55.6008 139.533 55.3808C140.208 55.38 140.874 55.2229 141.478 54.9217C142.082 54.6206 142.608 54.1835 143.015 53.6449C143.422 53.1063 143.699 52.4807 143.823 51.8173C143.948 51.1539 143.917 50.4706 143.733 49.8211Z" stroke="white" stroke-width="1.9999" stroke-miterlimit="10" stroke-linecap="round" stroke-linejoin="round"/>
</g>
<defs>
<clipPath id="clip0_4575_51">
<rect width="138.922" height="142" fill="white" transform="translate(6)"/>
</clipPath>
</defs>
</svg>
