<svg width="150" height="142" viewBox="0 0 150 142" fill="none" xmlns="http://www.w3.org/2000/svg">
<g clip-path="url(#clip0_4575_52)">
<path d="M121.539 111.368C121.549 111.358 121.549 111.338 121.559 111.328C121.578 111.298 121.592 111.264 121.599 111.228C121.609 111.198 121.619 111.158 121.629 111.128C121.637 111.096 121.641 111.062 121.639 111.028C121.639 111.008 121.649 110.998 121.649 110.978C121.649 110.958 121.639 110.948 121.639 110.928C121.639 110.908 121.629 110.858 121.629 110.828C121.629 110.798 121.609 110.758 121.599 110.728C121.588 110.694 121.575 110.661 121.559 110.628C121.549 110.618 121.549 110.598 121.539 110.588L110.323 91.1635H132.745C132.867 91.1597 132.986 91.129 133.095 91.0735C133.125 91.0535 133.145 91.0335 133.175 91.0135C133.256 90.9627 133.324 90.8944 133.375 90.8136C133.385 90.7936 133.405 90.7836 133.425 90.7636L144.781 71.0986C144.791 71.0886 144.791 71.0686 144.801 71.0586C144.82 71.028 144.833 70.9941 144.841 70.9586C144.851 70.9287 144.861 70.8887 144.871 70.8587C144.879 70.826 144.882 70.7923 144.881 70.7587C144.881 70.7387 144.891 70.7287 144.891 70.7087C144.891 70.6887 144.881 70.6787 144.881 70.6587C144.881 70.6387 144.871 70.5887 144.871 70.5587C144.871 70.5288 144.851 70.4888 144.841 70.4588C144.83 70.4245 144.817 70.391 144.801 70.3588C144.791 70.3488 144.791 70.3288 144.781 70.3188L133.425 50.6539C133.407 50.6285 133.387 50.605 133.365 50.5839C133.334 50.5391 133.297 50.4987 133.255 50.4639C133.213 50.4316 133.17 50.4016 133.125 50.3739C133.084 50.348 133.041 50.3278 132.995 50.3139C132.944 50.2944 132.89 50.2842 132.835 50.2839C132.805 50.2839 132.775 50.264 132.745 50.264H110.323L121.539 30.8389C121.549 30.8289 121.549 30.8089 121.559 30.7989C121.578 30.7683 121.592 30.7344 121.599 30.699C121.609 30.669 121.619 30.629 121.629 30.599C121.637 30.5663 121.641 30.5327 121.639 30.499C121.639 30.479 121.649 30.469 121.649 30.449C121.649 30.429 121.639 30.419 121.639 30.399C121.639 30.3791 121.629 30.3291 121.629 30.2991C121.629 30.2691 121.609 30.2291 121.599 30.1991C121.588 30.1648 121.575 30.1313 121.559 30.0991C121.549 30.0891 121.549 30.0691 121.539 30.0591L110.193 10.3942C110.176 10.3688 110.155 10.3453 110.133 10.3242C110.103 10.2818 110.069 10.2417 110.033 10.2042C109.991 10.1719 109.948 10.1419 109.903 10.1142C109.863 10.0883 109.819 10.0681 109.773 10.0543C109.722 10.0347 109.668 10.0245 109.613 10.0243C109.583 10.0243 109.553 10.0043 109.523 10.0043H86.8212C86.8012 10.0043 86.7912 10.0143 86.7712 10.0143C86.7512 10.0143 86.7012 10.0243 86.6712 10.0243L86.5613 10.0543C86.5296 10.0633 86.4992 10.0768 86.4712 10.0942C86.4595 10.1022 86.4454 10.1057 86.4313 10.1042L86.4013 10.1342C86.3729 10.1518 86.3462 10.1718 86.3214 10.1942C86.2923 10.2183 86.2654 10.2451 86.2413 10.2742C86.2213 10.3042 86.2014 10.3242 86.1814 10.3542C86.1691 10.3656 86.1589 10.3791 86.1514 10.3942L74.9354 29.8192L63.7194 10.3942C63.7019 10.3688 63.6818 10.3453 63.6593 10.3242C63.6255 10.2818 63.5887 10.2417 63.5494 10.2042C63.5118 10.1741 63.4717 10.1474 63.4294 10.1242C63.3891 10.0983 63.3454 10.0781 63.2995 10.0643C63.2487 10.0438 63.1943 10.0336 63.1395 10.0343C63.1095 10.0343 63.0796 10.0143 63.0496 10.0143H40.3476C40.3276 10.0143 40.3176 10.0243 40.2976 10.0243C40.2776 10.0243 40.2276 10.0343 40.1977 10.0343L40.0877 10.0643C40.056 10.0733 40.0256 10.0868 39.9977 10.1042C39.9859 10.1122 39.9718 10.1157 39.9578 10.1142C39.9464 10.1266 39.9328 10.1368 39.9177 10.1442C39.8893 10.1617 39.8626 10.1818 39.8378 10.2042C39.8087 10.2283 39.7818 10.2551 39.7578 10.2842C39.7378 10.3142 39.7178 10.3342 39.6978 10.3642C39.6855 10.3756 39.6753 10.3891 39.6678 10.4042L28.3218 30.0691C28.3074 30.0975 28.2973 30.1278 28.2918 30.1591C28.2707 30.2075 28.2539 30.2577 28.2418 30.3091C28.2285 30.4086 28.2285 30.5095 28.2418 30.609C28.2539 30.6604 28.2707 30.7106 28.2918 30.759C28.2973 30.7903 28.3074 30.8206 28.3218 30.8489L39.5379 50.274H17.1158C17.0958 50.274 17.0858 50.2839 17.0658 50.2839C17.0458 50.2839 16.9959 50.2939 16.9659 50.2939L16.8559 50.3239C16.8242 50.333 16.7938 50.3465 16.7659 50.3639C16.7559 50.3739 16.736 50.3739 16.726 50.3839L16.6959 50.4139C16.6675 50.4314 16.6408 50.4515 16.616 50.4739C16.5869 50.498 16.56 50.5248 16.536 50.5539C16.516 50.5839 16.496 50.6039 16.4761 50.6339C16.4637 50.6452 16.4535 50.6588 16.446 50.6738L5.09006 70.3388C5.07562 70.3671 5.06548 70.3975 5.06004 70.4288C5.03891 70.4772 5.02213 70.5274 5.01001 70.5787C4.99666 70.6783 4.99666 70.7791 5.01001 70.8787C5.02213 70.9301 5.03891 70.9802 5.06004 71.0286C5.06548 71.06 5.07562 71.0903 5.09006 71.1186L16.446 90.7836L16.4761 90.8136C16.4962 90.8459 16.5196 90.876 16.546 90.9035C16.586 90.9435 16.6259 90.9735 16.6659 91.0135C16.6959 91.0335 16.706 91.0635 16.736 91.0735C16.7477 91.0814 16.7618 91.085 16.7759 91.0835C16.8844 91.139 17.0039 91.1697 17.1257 91.1735H39.5479L28.3419 110.598C28.3274 110.627 28.3173 110.657 28.3118 110.688C28.2907 110.737 28.2739 110.787 28.2618 110.838C28.2485 110.938 28.2485 111.039 28.2618 111.138C28.2739 111.19 28.2907 111.24 28.3118 111.288C28.3173 111.32 28.3274 111.35 28.3419 111.378L39.6878 131.043L39.7178 131.073C39.738 131.106 39.7614 131.136 39.7878 131.163C39.8278 131.203 39.8677 131.233 39.9077 131.273C39.9377 131.293 39.9478 131.323 39.9778 131.333C39.9895 131.341 40.0036 131.345 40.0177 131.343C40.1262 131.399 40.2457 131.429 40.3675 131.433H63.0696C63.1914 131.429 63.3109 131.399 63.4194 131.343C63.4494 131.323 63.4694 131.303 63.4994 131.283C63.5802 131.232 63.6486 131.164 63.6994 131.083C63.7094 131.063 63.7293 131.053 63.7493 131.033L74.9654 111.608L86.1814 131.033L86.2114 131.063C86.2316 131.096 86.255 131.126 86.2814 131.153C86.3214 131.193 86.3613 131.223 86.4013 131.263C86.4313 131.283 86.4413 131.313 86.4712 131.323C86.483 131.331 86.4972 131.335 86.5113 131.333C86.6198 131.389 86.7393 131.419 86.8611 131.423H109.563C109.685 131.419 109.804 131.389 109.913 131.333C109.943 131.313 109.963 131.293 109.993 131.273C110.074 131.222 110.142 131.154 110.193 131.073C110.203 131.053 110.223 131.043 110.243 131.023L121.539 111.368ZM109.053 129.854H88.1607L98.607 111.758H119.5L109.053 129.854ZM62.5698 129.854H41.6771L64.0192 91.1635H84.9119L62.5698 129.854ZM18.4353 89.5839L28.8816 71.4885H73.5559L63.1095 89.5839H18.4353ZM17.0758 52.6134L27.5221 70.7087L17.0758 88.8041L6.62943 70.7087L17.0758 52.6134ZM29.8712 30.439L40.3176 12.3437L62.6597 51.0338L52.2134 69.1291L29.8712 30.439ZM86.8112 12.3537L97.2575 30.449L74.9254 69.1391L64.479 51.0438L86.8112 12.3537ZM109.053 11.5639L119.5 29.6592H98.607L88.1607 11.5639H109.053ZM132.305 51.8335L142.751 69.9289H98.0773L87.6309 51.8335H132.305ZM86.2614 52.6134L96.2478 69.9189H76.2649L86.2614 52.6134ZM73.5559 69.9189H53.5729L63.5594 52.6134L73.5559 69.9189ZM74.9154 72.2783L84.9018 89.5839H64.9189L74.9154 72.2783ZM76.2749 71.4985H97.1575L119.49 110.189H98.597L76.2749 71.4985ZM98.9768 71.4985H142.741L132.295 89.5939H109.413L98.9768 71.4985ZM87.6309 50.254L98.617 31.2288H119.51L108.524 50.254H87.6309ZM63.5594 49.4742L41.6771 11.5639H62.5698L74.0157 31.3788L63.5594 49.4742ZM50.8439 69.9189H28.8716L18.4253 51.8236H40.3975L50.8439 69.9189ZM62.1999 91.1635L40.3176 129.074L29.8712 110.978L41.3073 91.1635H62.1999ZM86.2614 91.9433L97.2475 110.968L86.8012 129.064L75.8151 110.029L86.2614 91.9433Z" fill="white"/>
</g>
<defs>
<clipPath id="clip0_4575_52">
<rect width="139.891" height="121.438" fill="white" transform="translate(5 10)"/>
</clipPath>
</defs>
</svg>
